<?xml version="1.0" encoding="UTF-8"?>
<svg id="Layer_1" data-name="Layer 1" xmlns="http://www.w3.org/2000/svg" viewBox="0 0 448 448">
  <defs>
    <style>
      .cls-1 {
        fill: #d9d4cb;
      }

      .cls-2 {
        fill: #040203;
      }
    </style>
  </defs>
  <g>
    <rect class="cls-1" x="8" y="8" width="432" height="432" rx="56" ry="56"/>
    <path class="cls-2" d="M384,16c26.47,0,48,21.53,48,48v320c0,26.47-21.53,48-48,48H64c-26.47,0-48-21.53-48-48V64c0-26.47,21.53-48,48-48h320M384,0H64C28.7,0,0,28.7,0,64v320c0,35.3,28.7,64,64,64h320c35.3,0,64-28.7,64-64V64c0-35.3-28.7-64-64-64h0Z"/>
  </g>
  <g>
    <path class="cls-2" d="M225.17,150.75l72.14,72.14-106.89,106.78c-4.17,4.17-9.35,7.11-15.14,8.53l-61.06,15.24c-5.59,1.42-11.38-.2-15.44-4.27-4.06-4.06-5.69-9.86-4.27-15.44l15.24-61.06c1.42-5.69,4.37-10.97,8.53-15.14v.1l106.89-106.89Z"/>
    <path class="cls-2" d="M342.11,178.08l-21.74,21.74-72.14-72.14,21.74-21.74c15.85-15.85,41.56-15.85,57.51,0l14.63,14.63c15.85,15.85,15.85,41.56,0,57.51Z"/>
  </g>
</svg>